<?xml version="1.0" encoding="iso-8859-1"?>
<!-- Uploaded to: SVG Repo, www.svgrepo.com, Generator: SVG Repo Mixer Tools -->
<svg width="156" height="156" version="1.1" id="Layer_1" xmlns="http://www.w3.org/2000/svg" xmlns:xlink="http://www.w3.org/1999/xlink" 
	 viewBox="0 0 511.984 511.984" xml:space="preserve">
<path style="fill:#CCD1D9;" d="M351.989,42.718c-46.123,0-87.685,19.516-116.871,50.733c-15.655-18.015-38.718-29.405-64.467-29.405
	c-47.124,0-85.325,38.202-85.325,85.325c0,0.719,0.016,1.422,0.031,2.141C36.655,161.386,0,204.432,0,256.04
	c0,58.904,47.749,106.668,106.653,106.668h245.336c88.356,0,159.995-71.638,159.995-159.995
	C511.984,114.341,440.346,42.718,351.989,42.718z"/>
<path style="fill:#AAB2BC;" d="M453.954,79.404c22.906,27.688,36.688,63.218,36.688,101.966
	c0,88.373-71.622,159.995-159.995,159.995H85.326c-24.016,0-46.171-7.938-63.998-21.327c19.452,25.905,50.436,42.67,85.325,42.67
	h245.336c88.356,0,159.995-71.638,159.995-159.995C511.984,153.09,489.391,108.763,453.954,79.404z"/>
<path style="fill:#5D9CEC;" d="M319.991,405.269c0,35.359-28.656,63.997-63.999,63.997s-63.998-28.638-63.998-63.997
	c0-35.343,51.842-127.902,64.029-127.902S319.991,369.927,319.991,405.269z"/>
<g>
	<path style="fill:#4A89DC;" d="M405.316,437.269c0,17.67-14.328,31.997-32,31.997c-17.671,0-31.999-14.327-31.999-31.997
		c0-17.672,25.858-53.234,31.952-53.234S405.316,419.597,405.316,437.269z"/>
	<path style="fill:#4A89DC;" d="M170.651,437.269c0,17.67-14.312,31.997-31.999,31.997c-17.656,0-31.999-14.327-31.999-31.997
		c0-17.672,25.858-53.234,31.952-53.234S170.651,419.597,170.651,437.269z"/>
</g>
</svg>